<svg width="20" height="20" viewBox="0 0 20 20" fill="none" xmlns="http://www.w3.org/2000/svg">
<path d="M16.4912 3.51758C14.0246 1.05924 10.0246 1.05924 7.57455 3.51758C5.84955 5.22591 5.33289 7.68424 5.99955 9.85091L2.08289 13.7676C1.80789 14.0509 1.61622 14.6092 1.67455 15.0092L1.92455 16.8259C2.01622 17.4259 2.57455 17.9926 3.17455 18.0759L4.99122 18.3259C5.39122 18.3842 5.94955 18.2009 6.23289 17.9092L6.91622 17.2259C7.08289 17.0676 7.08289 16.8009 6.91622 16.6342L5.29955 15.0176C5.05789 14.7759 5.05789 14.3759 5.29955 14.1342C5.54122 13.8926 5.94122 13.8926 6.18289 14.1342L7.80789 15.7592C7.96622 15.9176 8.23289 15.9176 8.39122 15.7592L10.1579 14.0009C12.3162 14.6759 14.7746 14.1509 16.4912 12.4426C18.9496 9.98425 18.9496 5.97591 16.4912 3.51758ZM12.0829 10.0009C10.9329 10.0009 9.99955 9.06758 9.99955 7.91758C9.99955 6.76758 10.9329 5.83424 12.0829 5.83424C13.2329 5.83424 14.1662 6.76758 14.1662 7.91758C14.1662 9.06758 13.2329 10.0009 12.0829 10.0009Z" fill="#34ADF4"/>
</svg>
