<svg width="18" height="18" viewBox="0 0 18 18" fill="none" xmlns="http://www.w3.org/2000/svg">
<path d="M15.4912 2.51758C13.0246 0.0592449 9.02455 0.0592449 6.57455 2.51758C4.84955 4.22591 4.33289 6.68424 4.99955 8.85091L1.08289 12.7676C0.807886 13.0509 0.616219 13.6092 0.674552 14.0092L0.924552 15.8259C1.01622 16.4259 1.57455 16.9926 2.17455 17.0759L3.99122 17.3259C4.39122 17.3842 4.94955 17.2009 5.23289 16.9092L5.91622 16.2259C6.08289 16.0676 6.08289 15.8009 5.91622 15.6342L4.29955 14.0176C4.05789 13.7759 4.05789 13.3759 4.29955 13.1342C4.54122 12.8926 4.94122 12.8926 5.18289 13.1342L6.80789 14.7592C6.96622 14.9176 7.23289 14.9176 7.39122 14.7592L9.15789 13.0009C11.3162 13.6759 13.7746 13.1509 15.4912 11.4426C17.9496 8.98425 17.9496 4.97591 15.4912 2.51758ZM11.0829 9.00091C9.93289 9.00091 8.99955 8.06758 8.99955 6.91758C8.99955 5.76758 9.93289 4.83424 11.0829 4.83424C12.2329 4.83424 13.1662 5.76758 13.1662 6.91758C13.1662 8.06758 12.2329 9.00091 11.0829 9.00091Z" fill="#637990"/>
</svg>
