<svg width="14" height="18" viewBox="0 0 14 18" fill="none" xmlns="http://www.w3.org/2000/svg">
<path d="M10.533 0.667969H3.46634C1.16634 0.667969 0.333008 1.5013 0.333008 3.84297V14.1596C0.333008 16.5013 1.16634 17.3346 3.46634 17.3346H10.5247C12.833 17.3346 13.6663 16.5013 13.6663 14.1596V3.84297C13.6663 1.5013 12.833 0.667969 10.533 0.667969ZM6.99967 15.0846C6.19967 15.0846 5.54134 14.4263 5.54134 13.6263C5.54134 12.8263 6.19967 12.168 6.99967 12.168C7.79967 12.168 8.45801 12.8263 8.45801 13.6263C8.45801 14.4263 7.79967 15.0846 6.99967 15.0846ZM8.66634 4.20964H5.33301C4.99134 4.20964 4.70801 3.9263 4.70801 3.58464C4.70801 3.24297 4.99134 2.95964 5.33301 2.95964H8.66634C9.00801 2.95964 9.29134 3.24297 9.29134 3.58464C9.29134 3.9263 9.00801 4.20964 8.66634 4.20964Z" fill="#637990"/>
</svg>
