<svg width="16" height="18" viewBox="0 0 16 18" fill="none" xmlns="http://www.w3.org/2000/svg">
<path d="M11.3333 0.667969H4.66667C1.75 0.667969 0.5 2.33464 0.5 4.83464V13.168C0.5 15.668 1.75 17.3346 4.66667 17.3346H11.3333C14.25 17.3346 15.5 15.668 15.5 13.168V4.83464C15.5 2.33464 14.25 0.667969 11.3333 0.667969ZM6.775 12.7263C7.01667 12.968 7.01667 13.368 6.775 13.6096C6.65 13.7346 6.49167 13.793 6.33333 13.793C6.175 13.793 6.01667 13.7346 5.89167 13.6096L4.225 11.943C3.98333 11.7013 3.98333 11.3013 4.225 11.0596L5.89167 9.39297C6.13333 9.1513 6.53333 9.1513 6.775 9.39297C7.01667 9.63463 7.01667 10.0346 6.775 10.2763L5.55 11.5013L6.775 12.7263ZM11.775 11.943L10.1083 13.6096C9.98333 13.7346 9.825 13.793 9.66667 13.793C9.50833 13.793 9.35 13.7346 9.225 13.6096C8.98333 13.368 8.98333 12.968 9.225 12.7263L10.45 11.5013L9.225 10.2763C8.98333 10.0346 8.98333 9.63463 9.225 9.39297C9.46667 9.1513 9.86667 9.1513 10.1083 9.39297L11.775 11.0596C12.0167 11.3013 12.0167 11.7013 11.775 11.943ZM13.4167 6.70964H11.75C10.4833 6.70964 9.45833 5.68464 9.45833 4.41797V2.7513C9.45833 2.40964 9.74167 2.1263 10.0833 2.1263C10.425 2.1263 10.7083 2.40964 10.7083 2.7513V4.41797C10.7083 4.99297 11.175 5.45964 11.75 5.45964H13.4167C13.7583 5.45964 14.0417 5.74297 14.0417 6.08464C14.0417 6.4263 13.7583 6.70964 13.4167 6.70964Z" fill="#637990"/>
</svg>
