<svg width="18" height="18" viewBox="0 0 18 18" fill="none" xmlns="http://www.w3.org/2000/svg">
<path d="M12.492 0.667969H5.50866C2.47533 0.667969 0.666992 2.4763 0.666992 5.50964V12.4846C0.666992 15.5263 2.47533 17.3346 5.50866 17.3346H12.4837C15.517 17.3346 17.3253 15.5263 17.3253 12.493V5.50964C17.3337 2.4763 15.5253 0.667969 12.492 0.667969ZM7.44199 11.0846C7.68366 11.3263 7.68366 11.7263 7.44199 11.968C7.31699 12.093 7.15866 12.1513 7.00033 12.1513C6.84199 12.1513 6.68366 12.093 6.55866 11.968L4.48366 9.89297C3.99199 9.4013 3.99199 8.60963 4.48366 8.11797L6.55866 6.04297C6.80032 5.8013 7.20033 5.8013 7.44199 6.04297C7.68366 6.28464 7.68366 6.68464 7.44199 6.9263L5.36699 9.0013L7.44199 11.0846ZM13.517 9.88464L11.442 11.9596C11.317 12.0846 11.1587 12.143 11.0003 12.143C10.842 12.143 10.6837 12.0846 10.5587 11.9596C10.317 11.718 10.317 11.318 10.5587 11.0763L12.6337 9.0013L10.5587 6.91797C10.317 6.6763 10.317 6.2763 10.5587 6.03464C10.8003 5.79297 11.2003 5.79297 11.442 6.03464L13.517 8.10964C14.0087 8.6013 14.0087 9.4013 13.517 9.88464Z" fill="#637990"/>
</svg>
