<svg width="16" height="18" viewBox="0 0 16 18" fill="none" xmlns="http://www.w3.org/2000/svg">
<path d="M11.3333 0.666687H4.66667C1.75 0.666687 0.5 2.33335 0.5 4.83335V13.1667C0.5 15.6667 1.75 17.3334 4.66667 17.3334H11.3333C14.25 17.3334 15.5 15.6667 15.5 13.1667V4.83335C15.5 2.33335 14.25 0.666687 11.3333 0.666687ZM4.66667 9.20835H8C8.34167 9.20835 8.625 9.49169 8.625 9.83335C8.625 10.175 8.34167 10.4584 8 10.4584H4.66667C4.325 10.4584 4.04167 10.175 4.04167 9.83335C4.04167 9.49169 4.325 9.20835 4.66667 9.20835ZM11.3333 13.7917H4.66667C4.325 13.7917 4.04167 13.5084 4.04167 13.1667C4.04167 12.825 4.325 12.5417 4.66667 12.5417H11.3333C11.675 12.5417 11.9583 12.825 11.9583 13.1667C11.9583 13.5084 11.675 13.7917 11.3333 13.7917ZM13.4167 6.70835H11.75C10.4833 6.70835 9.45833 5.68335 9.45833 4.41669V2.75002C9.45833 2.40835 9.74167 2.12502 10.0833 2.12502C10.425 2.12502 10.7083 2.40835 10.7083 2.75002V4.41669C10.7083 4.99169 11.175 5.45835 11.75 5.45835H13.4167C13.7583 5.45835 14.0417 5.74169 14.0417 6.08335C14.0417 6.42502 13.7583 6.70835 13.4167 6.70835Z" fill="#637990"/>
</svg>
