<svg width="20" height="20" viewBox="0 0 20 20" fill="none" xmlns="http://www.w3.org/2000/svg">
<path d="M13.3346 10.75V14.25C13.3346 17.1667 12.168 18.3334 9.2513 18.3334H5.7513C2.83464 18.3334 1.66797 17.1667 1.66797 14.25V10.75C1.66797 7.83335 2.83464 6.66669 5.7513 6.66669H9.2513C12.168 6.66669 13.3346 7.83335 13.3346 10.75Z" fill="#D6DCE2"/>
<path d="M14.2508 1.66669H10.7508C8.24733 1.66669 7.03919 2.53234 6.74673 4.61577C6.66931 5.16727 7.13077 5.62502 7.68769 5.62502H9.25078C12.7508 5.62502 14.3758 7.25002 14.3758 10.75V12.3131C14.3758 12.87 14.8335 13.3315 15.385 13.2541C17.4685 12.9616 18.3341 11.7535 18.3341 9.25002V5.75002C18.3341 2.83335 17.1674 1.66669 14.2508 1.66669Z" fill="#899AAC"/>
</svg>
