<svg width="20" height="20" viewBox="0 0 20 20" fill="none" xmlns="http://www.w3.org/2000/svg">
<path d="M5.83268 6.66797H3.33268C2.41602 6.66797 1.66602 5.91797 1.66602 5.0013V3.33464C1.66602 2.41797 2.41602 1.66797 3.33268 1.66797H5.83268C6.74935 1.66797 7.49935 2.41797 7.49935 3.33464V5.0013C7.49935 5.91797 6.74935 6.66797 5.83268 6.66797Z" fill="#637990"/>
<path d="M17.334 5.83333H14.334C13.784 5.83333 13.334 5.38333 13.334 4.83333V3.5C13.334 2.95 13.784 2.5 14.334 2.5H17.334C17.884 2.5 18.334 2.95 18.334 3.5V4.83333C18.334 5.38333 17.884 5.83333 17.334 5.83333Z" fill="#637990"/>
<path d="M17.334 12.0833H14.334C13.784 12.0833 13.334 11.6333 13.334 11.0833V9.75C13.334 9.2 13.784 8.75 14.334 8.75H17.334C17.884 8.75 18.334 9.2 18.334 9.75V11.0833C18.334 11.6333 17.884 12.0833 17.334 12.0833Z" fill="#637990"/>
<path opacity="0.96" d="M13.3333 11.043C13.675 11.043 13.9583 10.7596 13.9583 10.418C13.9583 10.0763 13.675 9.79297 13.3333 9.79297H11.0417V4.79297H13.3333C13.675 4.79297 13.9583 4.50964 13.9583 4.16797C13.9583 3.8263 13.675 3.54297 13.3333 3.54297H7.5C7.15833 3.54297 6.875 3.8263 6.875 4.16797C6.875 4.50964 7.15833 4.79297 7.5 4.79297H9.79167V15.0013C9.79167 16.268 10.8167 17.293 12.0833 17.293H13.3333C13.675 17.293 13.9583 17.0096 13.9583 16.668C13.9583 16.3263 13.675 16.043 13.3333 16.043H12.0833C11.5083 16.043 11.0417 15.5763 11.0417 15.0013V11.043H13.3333Z" fill="#637990"/>
<path d="M17.334 18.3333H14.334C13.784 18.3333 13.334 17.8833 13.334 17.3333V16C13.334 15.45 13.784 15 14.334 15H17.334C17.884 15 18.334 15.45 18.334 16V17.3333C18.334 17.8833 17.884 18.3333 17.334 18.3333Z" fill="#637990"/>
</svg>
