<svg width="32" height="32" viewBox="0 0 32 32" fill="none" xmlns="http://www.w3.org/2000/svg">
<path d="M16 0C7.16379 0 0 7.16379 0 16C0 24.8362 7.16379 32 16 32C24.8362 32 32 24.8362 32 16C32 7.16379 24.8362 0 16 0Z" fill="#F5413D"/>
<path d="M16.0007 25.142C17.2631 25.142 18.2865 24.1186 18.2865 22.8562C18.2865 21.5937 17.2631 20.5703 16.0007 20.5703C14.7383 20.5703 13.7148 21.5937 13.7148 22.8562C13.7148 24.1186 14.7383 25.142 16.0007 25.142Z" fill="white"/>
<path d="M17.829 17.257C17.7701 17.8446 17.2727 18.291 16.6816 18.2857H15.3101C14.7226 18.2865 14.2306 17.8419 14.1716 17.257L13.2573 8.11366C13.1966 7.48327 13.6591 6.92252 14.2895 6.8618C14.3279 6.85823 14.3663 6.85645 14.4047 6.85645H17.6049C18.2388 6.85823 18.7505 7.37433 18.7487 8.0074C18.7487 8.04312 18.7469 8.07794 18.7433 8.11277L17.829 17.257Z" fill="white"/>
</svg>
