<svg width="20" height="20" viewBox="0 0 20 20" fill="none" xmlns="http://www.w3.org/2000/svg">
<path d="M17.084 8.49166H14.6757C12.7007 8.49166 11.0923 6.88332 11.0923 4.90832V2.49999C11.0923 2.04166 10.7173 1.66666 10.259 1.66666H6.72565C4.15898 1.66666 2.08398 3.33332 2.08398 6.30832V13.6917C2.08398 16.6667 4.15898 18.3333 6.72565 18.3333H13.2757C15.8423 18.3333 17.9173 16.6667 17.9173 13.6917V9.32499C17.9173 8.86666 17.5423 8.49166 17.084 8.49166ZM10.234 13.15L8.56732 14.8167C8.50898 14.875 8.43398 14.925 8.35898 14.95C8.28398 14.9833 8.20898 15 8.12565 15C8.04232 15 7.96732 14.9833 7.89232 14.95C7.82565 14.925 7.75898 14.875 7.70898 14.825C7.70065 14.8167 7.69232 14.8167 7.69232 14.8083L6.02565 13.1417C5.78398 12.9 5.78398 12.5 6.02565 12.2583C6.26732 12.0167 6.66732 12.0167 6.90898 12.2583L7.50065 12.8667V9.37499C7.50065 9.03332 7.78398 8.74999 8.12565 8.74999C8.46732 8.74999 8.75065 9.03332 8.75065 9.37499V12.8667L9.35065 12.2667C9.59232 12.025 9.99232 12.025 10.234 12.2667C10.4757 12.5083 10.4757 12.9083 10.234 13.15Z" fill="#292D32"/>
<path d="M14.5241 7.34167C15.3158 7.35 16.4158 7.35 17.3574 7.35C17.8324 7.35 18.0824 6.79167 17.7491 6.45834C16.5491 5.25 14.3991 3.075 13.1658 1.84167C12.8241 1.5 12.2324 1.73334 12.2324 2.20834V5.11667C12.2324 6.33334 13.2658 7.34167 14.5241 7.34167Z" fill="#292D32"/>
</svg>
