<svg width="20" height="20" viewBox="0 0 20 20" fill="none" xmlns="http://www.w3.org/2000/svg">
<path d="M13.3327 3.54169C13.3327 4.57502 12.491 5.41669 11.4577 5.41669H8.54102C8.02435 5.41669 7.55768 5.20835 7.21602 4.86669C6.87435 4.52502 6.66602 4.05835 6.66602 3.54169C6.66602 2.50835 7.50768 1.66669 8.54102 1.66669H11.4577C11.9743 1.66669 12.441 1.87502 12.7827 2.21669C13.1243 2.55835 13.3327 3.02502 13.3327 3.54169Z" fill="#34ADF4"/>
<path d="M15.6923 4.1917C15.5007 4.03336 15.284 3.90836 15.0507 3.8167C14.809 3.72503 14.5673 3.9167 14.5173 4.1667C14.234 5.5917 12.9757 6.6667 11.459 6.6667H8.54232C7.70898 6.6667 6.92565 6.3417 6.33398 5.75003C5.90065 5.3167 5.60065 4.7667 5.48398 4.17503C5.43398 3.92503 5.18398 3.72503 4.94232 3.82503C3.97565 4.2167 3.33398 5.10003 3.33398 6.87503V15C3.33398 17.5 4.82565 18.3334 6.66732 18.3334H13.334C15.1757 18.3334 16.6673 17.5 16.6673 15V6.87503C16.6673 5.5167 16.2923 4.68336 15.6923 4.1917ZM6.66732 10.2084H10.0007C10.3423 10.2084 10.6257 10.4917 10.6257 10.8334C10.6257 11.175 10.3423 11.4584 10.0007 11.4584H6.66732C6.32565 11.4584 6.04232 11.175 6.04232 10.8334C6.04232 10.4917 6.32565 10.2084 6.66732 10.2084ZM13.334 14.7917H6.66732C6.32565 14.7917 6.04232 14.5084 6.04232 14.1667C6.04232 13.825 6.32565 13.5417 6.66732 13.5417H13.334C13.6757 13.5417 13.959 13.825 13.959 14.1667C13.959 14.5084 13.6757 14.7917 13.334 14.7917Z" fill="#34ADF4"/>
</svg>
