<svg width="20" height="20" viewBox="0 0 20 20" fill="none" xmlns="http://www.w3.org/2000/svg">
<path d="M17.5 18.3333H2.5C2.15833 18.3333 1.875 18.05 1.875 17.7083C1.875 17.3666 2.15833 17.0833 2.5 17.0833H17.5C17.8417 17.0833 18.125 17.3666 18.125 17.7083C18.125 18.05 17.8417 18.3333 17.5 18.3333Z" fill="#292D32"/>
<path d="M15.8495 2.89999C14.2328 1.28332 12.6495 1.24166 10.9912 2.89999L9.98283 3.90832C9.89949 3.99166 9.86616 4.12499 9.89949 4.24166C10.5328 6.44999 12.2995 8.21666 14.5078 8.84999C14.5412 8.85832 14.5745 8.86666 14.6078 8.86666C14.6995 8.86666 14.7828 8.83332 14.8495 8.76666L15.8495 7.75832C16.6745 6.94166 17.0745 6.14999 17.0745 5.34999C17.0828 4.52499 16.6828 3.72499 15.8495 2.89999Z" fill="#292D32"/>
<path d="M13.007 9.60835C12.7653 9.49169 12.532 9.37502 12.307 9.24169C12.1236 9.13335 11.9486 9.01669 11.7736 8.89169C11.632 8.80002 11.4653 8.66669 11.307 8.53335C11.2903 8.52502 11.232 8.47502 11.1653 8.40835C10.8903 8.17502 10.582 7.87502 10.307 7.54169C10.282 7.52502 10.2403 7.46669 10.182 7.39169C10.0986 7.29169 9.95697 7.12502 9.83197 6.93335C9.73197 6.80835 9.6153 6.62502 9.50697 6.44169C9.37364 6.21669 9.25697 5.99169 9.1403 5.75835C8.98734 5.43057 8.55713 5.3332 8.30135 5.58897L3.6153 10.275C3.50697 10.3834 3.40697 10.5917 3.38197 10.7334L2.93197 13.925C2.84864 14.4917 3.00697 15.025 3.35697 15.3834C3.65697 15.675 4.07364 15.8334 4.52364 15.8334C4.62364 15.8334 4.72364 15.825 4.82364 15.8084L8.02364 15.3584C8.17364 15.3334 8.38197 15.2334 8.48197 15.125L13.1758 10.4312C13.4264 10.1806 13.3322 9.7493 13.007 9.60835Z" fill="#292D32"/>
</svg>
