<svg width="20" height="20" viewBox="0 0 20 20" fill="none" xmlns="http://www.w3.org/2000/svg">
<path d="M13.7585 4.1763L12.1251 2.54297C10.9585 1.3763 9.0418 1.3763 7.87513 2.54297L6.2418 4.1763C5.9168 4.5013 5.9168 5.03464 6.2418 5.35964L9.4168 8.53464C9.7418 8.85963 10.2668 8.85963 10.5918 8.53464L13.7668 5.35964C14.0835 5.03464 14.0835 4.5013 13.7585 4.1763Z" fill="#637990"/>
<path d="M4.17533 6.24375L2.54199 7.87708C1.37533 9.04375 1.37533 10.9604 2.54199 12.1271L4.17533 13.7604C4.50033 14.0854 5.02533 14.0854 5.35033 13.7604L8.52533 10.5854C8.85033 10.2604 8.85033 9.73542 8.52533 9.41042L5.35866 6.24375C5.03366 5.91875 4.50033 5.91875 4.17533 6.24375Z" fill="#637990"/>
<path d="M17.4585 7.87708L15.8252 6.24375C15.5002 5.91875 14.9752 5.91875 14.6502 6.24375L11.4752 9.41875C11.1502 9.74375 11.1502 10.2688 11.4752 10.5938L14.6502 13.7688C14.9752 14.0938 15.5002 14.0938 15.8252 13.7688L17.4585 12.1354C18.6252 10.9604 18.6252 9.04375 17.4585 7.87708Z" fill="#637990"/>
<path d="M6.24187 15.8281L7.87521 17.4615C9.04187 18.6281 10.9585 18.6281 12.1252 17.4615L13.7585 15.8281C14.0835 15.5031 14.0835 14.9781 13.7585 14.6531L10.5835 11.4781C10.2585 11.1531 9.73354 11.1531 9.40854 11.4781L6.23354 14.6531C5.91687 14.9698 5.91687 15.5031 6.24187 15.8281Z" fill="#637990"/>
</svg>
