<svg width="32" height="32" viewBox="0 0 32 32" fill="none" xmlns="http://www.w3.org/2000/svg">
<path d="M28.6667 14.5333V5.46663C28.6667 3.46663 27.8134 2.66663 25.6934 2.66663H20.3067C18.1867 2.66663 17.3334 3.46663 17.3334 5.46663V14.5333C17.3334 16.5333 18.1867 17.3333 20.3067 17.3333H25.6934C27.8134 17.3333 28.6667 16.5333 28.6667 14.5333Z" fill="#B0BBC7"/>
<path d="M14.6667 17.4666V26.5333C14.6667 28.5333 13.8134 29.3333 11.6934 29.3333H6.30671C4.18671 29.3333 3.33337 28.5333 3.33337 26.5333V17.4666C3.33337 15.4666 4.18671 14.6666 6.30671 14.6666H11.6934C13.8134 14.6666 14.6667 15.4666 14.6667 17.4666Z" fill="#B0BBC7"/>
<path d="M28.6667 26.5333V22.8C28.6667 20.8 27.8134 20 25.6934 20H20.3067C18.1867 20 17.3334 20.8 17.3334 22.8V26.5333C17.3334 28.5333 18.1867 29.3333 20.3067 29.3333H25.6934C27.8134 29.3333 28.6667 28.5333 28.6667 26.5333Z" fill="#B0BBC7"/>
<path d="M14.6667 9.19996V5.46663C14.6667 3.46663 13.8134 2.66663 11.6934 2.66663H6.30671C4.18671 2.66663 3.33337 3.46663 3.33337 5.46663V9.19996C3.33337 11.2 4.18671 12 6.30671 12H11.6934C13.8134 12 14.6667 11.2 14.6667 9.19996Z" fill="#B0BBC7"/>
</svg>
