<svg width="32" height="32" viewBox="0 0 32 32" fill="none" xmlns="http://www.w3.org/2000/svg">
<path d="M28.6667 14.5333V5.46663C28.6667 3.46663 27.8133 2.66663 25.6933 2.66663H20.3067C18.1867 2.66663 17.3333 3.46663 17.3333 5.46663V14.5333C17.3333 16.5333 18.1867 17.3333 20.3067 17.3333H25.6933C27.8133 17.3333 28.6667 16.5333 28.6667 14.5333Z" fill="#16375A"/>
<path d="M14.6667 17.4666V26.5333C14.6667 28.5333 13.8133 29.3333 11.6933 29.3333H6.30667C4.18667 29.3333 3.33333 28.5333 3.33333 26.5333V17.4666C3.33333 15.4666 4.18667 14.6666 6.30667 14.6666H11.6933C13.8133 14.6666 14.6667 15.4666 14.6667 17.4666Z" fill="#16375A"/>
<path d="M28.6667 26.5333V22.8C28.6667 20.8 27.8133 20 25.6933 20H20.3067C18.1867 20 17.3333 20.8 17.3333 22.8V26.5333C17.3333 28.5333 18.1867 29.3333 20.3067 29.3333H25.6933C27.8133 29.3333 28.6667 28.5333 28.6667 26.5333Z" fill="#16375A"/>
<path d="M14.6667 9.19996V5.46663C14.6667 3.46663 13.8133 2.66663 11.6933 2.66663H6.30667C4.18667 2.66663 3.33333 3.46663 3.33333 5.46663V9.19996C3.33333 11.2 4.18667 12 6.30667 12H11.6933C13.8133 12 14.6667 11.2 14.6667 9.19996Z" fill="#16375A"/>
</svg>
