<svg width="20" height="20" viewBox="0 0 20 20" fill="none" xmlns="http://www.w3.org/2000/svg">
<path d="M15 0.430176H5C2 0.430176 0 2.43018 0 5.43018V11.4302C0 14.4302 2 16.4302 5 16.4302V18.5602C5 19.3602 5.89 19.8402 6.55 19.3902L11 16.4302H15C18 16.4302 20 14.4302 20 11.4302V5.43018C20 2.43018 18 0.430176 15 0.430176ZM10 12.6002C9.58 12.6002 9.25 12.2602 9.25 11.8502C9.25 11.4402 9.58 11.1002 10 11.1002C10.42 11.1002 10.75 11.4402 10.75 11.8502C10.75 12.2602 10.42 12.6002 10 12.6002ZM11.26 8.45018C10.87 8.71018 10.75 8.88018 10.75 9.16018V9.37018C10.75 9.78018 10.41 10.1202 10 10.1202C9.59 10.1202 9.25 9.78018 9.25 9.37018V9.16018C9.25 8.00018 10.1 7.43018 10.42 7.21018C10.79 6.96018 10.91 6.79018 10.91 6.53018C10.91 6.03018 10.5 5.62018 10 5.62018C9.5 5.62018 9.09 6.03018 9.09 6.53018C9.09 6.94018 8.75 7.28018 8.34 7.28018C7.93 7.28018 7.59 6.94018 7.59 6.53018C7.59 5.20018 8.67 4.12018 10 4.12018C11.33 4.12018 12.41 5.20018 12.41 6.53018C12.41 7.67018 11.57 8.24018 11.26 8.45018Z" fill="#292D32"/>
</svg>
