<svg width="14" height="14" viewBox="0 0 14 14" fill="none" xmlns="http://www.w3.org/2000/svg">
<path d="M12.0063 2.89998L8.04629 0.613313C7.39962 0.23998 6.59962 0.23998 5.94629 0.613313L1.99296 2.89998C1.34629 3.27331 0.946289 3.96665 0.946289 4.71998V9.27998C0.946289 10.0266 1.34629 10.72 1.99296 11.1L5.95296 13.3866C6.59962 13.76 7.39962 13.76 8.05296 13.3866L12.013 11.1C12.6596 10.7266 13.0596 10.0333 13.0596 9.27998V4.71998C13.053 3.96665 12.653 3.27998 12.0063 2.89998ZM6.49962 4.16665C6.49962 3.89331 6.72629 3.66665 6.99962 3.66665C7.27296 3.66665 7.49962 3.89331 7.49962 4.16665V7.66665C7.49962 7.93998 7.27296 8.16665 6.99962 8.16665C6.72629 8.16665 6.49962 7.93998 6.49962 7.66665V4.16665ZM7.61296 10.0866C7.57962 10.1666 7.53296 10.24 7.47296 10.3066C7.34629 10.4333 7.17962 10.5 6.99962 10.5C6.91296 10.5 6.82629 10.48 6.74629 10.4466C6.65962 10.4133 6.59296 10.3666 6.52629 10.3066C6.46629 10.24 6.41962 10.1666 6.37962 10.0866C6.34629 10.0066 6.33296 9.91998 6.33296 9.83331C6.33296 9.65998 6.39962 9.48665 6.52629 9.35998C6.59296 9.29998 6.65962 9.25331 6.74629 9.21998C6.99296 9.11331 7.28629 9.17331 7.47296 9.35998C7.53296 9.42665 7.57962 9.49331 7.61296 9.57998C7.64629 9.65998 7.66629 9.74665 7.66629 9.83331C7.66629 9.91998 7.64629 10.0066 7.61296 10.0866Z" fill="#34ADF4"/>
</svg>
