<svg width="18" height="18" viewBox="0 0 18 18" fill="none" xmlns="http://www.w3.org/2000/svg">
<path d="M16.9667 7.94844L15.8417 6.63177C15.6334 6.38177 15.4584 5.9151 15.4584 5.58177V4.1651C15.4584 3.28177 14.7334 2.55677 13.8501 2.55677H12.4334C12.1001 2.55677 11.6251 2.38177 11.3751 2.17344L10.0584 1.04844C9.4834 0.556771 8.54173 0.556771 7.96673 1.04844L6.6334 2.17344C6.3834 2.38177 5.91673 2.55677 5.5834 2.55677H4.14173C3.2584 2.55677 2.5334 3.28177 2.5334 4.1651V5.58177C2.5334 5.90677 2.36673 6.37344 2.1584 6.62344L1.0334 7.94844C0.550065 8.53177 0.550065 9.4651 1.0334 10.0318L2.1584 11.3568C2.36673 11.5984 2.5334 12.0734 2.5334 12.3984V13.8234C2.5334 14.7068 3.2584 15.4318 4.14173 15.4318H5.59173C5.91673 15.4318 6.39173 15.6068 6.64173 15.8151L7.9584 16.9401C8.5334 17.4318 9.47507 17.4318 10.0501 16.9401L11.3667 15.8151C11.6167 15.6068 12.0834 15.4318 12.4167 15.4318H13.8334C14.7167 15.4318 15.4417 14.7068 15.4417 13.8234V12.4068C15.4417 12.0734 15.6167 11.6068 15.8251 11.3568L16.9501 10.0401C17.4584 9.47344 17.4584 8.53177 16.9667 7.94844ZM8.37506 5.77344C8.37506 5.43177 8.6584 5.14844 9.00006 5.14844C9.34173 5.14844 9.62506 5.43177 9.62506 5.77344V9.79844C9.62506 10.1401 9.34173 10.4234 9.00006 10.4234C8.6584 10.4234 8.37506 10.1401 8.37506 9.79844V5.77344ZM9.00006 13.0568C8.54173 13.0568 8.16673 12.6818 8.16673 12.2234C8.16673 11.7651 8.5334 11.3901 9.00006 11.3901C9.4584 11.3901 9.8334 11.7651 9.8334 12.2234C9.8334 12.6818 9.46673 13.0568 9.00006 13.0568Z" fill="#637990"/>
</svg>
