<svg width="15" height="16" viewBox="0 0 15 16" fill="none" xmlns="http://www.w3.org/2000/svg">
<path d="M1.71191 8.64666V10C1.71191 13.3333 2.91554 14.6667 5.92461 14.6667H9.53549C12.5446 14.6667 13.7482 13.3333 13.7482 10V6C13.7482 2.66666 12.5446 1.33333 9.53549 1.33333H5.92461C2.91554 1.33333 1.71191 2.66666 1.71191 6" stroke="#2373A2" stroke-width="1.5" stroke-linecap="round" stroke-linejoin="round"/>
<path d="M10.305 9.07334C9.62494 9.82667 8.65 10.06 7.78941 9.76L6.23071 11.48C6.12239 11.6067 5.89972 11.6867 5.73723 11.66L5.01505 11.5533C4.77432 11.52 4.55767 11.2667 4.52156 11.0067L4.42527 10.2067C4.4012 10.0333 4.47944 9.78667 4.58776 9.66L6.14044 7.94C5.87564 6.98667 6.08026 5.90667 6.76031 5.15334C7.73525 4.07334 9.32404 4.07334 10.305 5.15334C11.2799 6.22667 11.2799 7.98667 10.305 9.07334Z" stroke="#2373A2" stroke-width="1.5" stroke-miterlimit="10" stroke-linecap="round" stroke-linejoin="round"/>
<path d="M6.7967 10.8533L6.28516 10.28" stroke="#2373A2" stroke-width="1.5" stroke-miterlimit="10" stroke-linecap="round" stroke-linejoin="round"/>
<path d="M8.56909 7.13331H8.57449" stroke="#2373A2" stroke-width="2" stroke-linecap="round" stroke-linejoin="round"/>
</svg>
