<svg width="32" height="32" viewBox="0 0 32 32" fill="none" xmlns="http://www.w3.org/2000/svg">
<path d="M26.6666 26.1867H14.5733C13.9733 26.1867 13.48 25.6933 13.48 25.0933C13.48 24.4933 13.9733 24 14.5733 24H26.6666C27.2666 24 27.76 24.4933 27.76 25.0933C27.76 25.7067 27.2666 26.1867 26.6666 26.1867Z" fill="#16375A"/>
<path d="M26.6666 18.1867H14.5733C13.9733 18.1867 13.48 17.6933 13.48 17.0933C13.48 16.4933 13.9733 16 14.5733 16H26.6666C27.2666 16 27.76 16.4933 27.76 17.0933C27.76 17.6933 27.2666 18.1867 26.6666 18.1867Z" fill="#16375A"/>
<path d="M26.6666 10.1867H14.5733C13.9733 10.1867 13.48 9.69333 13.48 9.09333C13.48 8.49333 13.9733 8 14.5733 8H26.6666C27.2666 8 27.76 8.49333 27.76 9.09333C27.76 9.69333 27.2666 10.1867 26.6666 10.1867Z" fill="#16375A"/>
<ellipse cx="7.20005" cy="8.80002" rx="2.4" ry="2.4" fill="#16375A"/>
<ellipse cx="7.20005" cy="16.8" rx="2.4" ry="2.4" fill="#16375A"/>
<ellipse cx="7.20005" cy="24.8" rx="2.4" ry="2.4" fill="#16375A"/>
</svg>
