<svg width="19" height="18" viewBox="0 0 19 18" fill="none" xmlns="http://www.w3.org/2000/svg">
<path d="M13.5687 6.86666H5.43125C5.36125 6.86666 5.3 6.86666 5.23 6.86666V5.89999C5.23 3.45832 5.95625 1.83332 9.5 1.83332C13.2887 1.83332 13.77 3.59166 13.77 5.12499C13.77 5.44999 14.0413 5.70832 14.3825 5.70832C14.7238 5.70832 14.995 5.44999 14.995 5.12499C14.995 2.16666 13.1488 0.666656 9.5 0.666656C4.57375 0.666656 4.005 3.64999 4.005 5.89999V6.94166C1.555 7.23332 0.75 8.41666 0.75 11.325V12.875C0.75 16.2917 1.84375 17.3333 5.43125 17.3333H13.5687C17.1562 17.3333 18.25 16.2917 18.25 12.875V11.325C18.25 7.90832 17.1562 6.86666 13.5687 6.86666ZM9.5 14.6167C8.03875 14.6167 6.8575 13.4833 6.8575 12.1C6.8575 10.7083 8.0475 9.58332 9.5 9.58332C10.9525 9.58332 12.1425 10.7167 12.1425 12.1C12.1425 13.4917 10.9613 14.6167 9.5 14.6167Z" fill="#899AAC"/>
</svg>
