<svg width="20" height="20" viewBox="0 0 20 20" fill="none" xmlns="http://www.w3.org/2000/svg">
<path d="M13.4916 1.66666H6.50829C3.47496 1.66666 1.66663 3.47499 1.66663 6.50832V13.4833C1.66663 16.525 3.47496 18.3333 6.50829 18.3333H13.4833C16.5166 18.3333 18.325 16.525 18.325 13.4917V6.50832C18.3333 3.47499 16.525 1.66666 13.4916 1.66666ZM14.375 10.275C14.375 10.6167 14.0916 10.9 13.75 10.9C13.4083 10.9 13.125 10.6167 13.125 10.275V7.75832L6.69163 14.1917C6.56663 14.3167 6.40829 14.375 6.24996 14.375C6.09163 14.375 5.93329 14.3167 5.80829 14.1917C5.56663 13.95 5.56663 13.55 5.80829 13.3083L12.2416 6.87499H9.72496C9.38329 6.87499 9.09996 6.59166 9.09996 6.24999C9.09996 5.90832 9.38329 5.62499 9.72496 5.62499H13.75C14.0916 5.62499 14.375 5.90832 14.375 6.24999V10.275Z" fill="#16375A"/>
</svg>
