<svg width="18" height="18" viewBox="0 0 18 18" fill="none" xmlns="http://www.w3.org/2000/svg">
<path d="M16.3834 5.97498L10.6084 1.35831C9.71672 0.641643 8.27506 0.641643 7.39172 1.34998L1.61672 5.97498C0.966725 6.49164 0.550058 7.58331 0.691725 8.39998L1.80006 15.0333C2.00006 16.2166 3.13339 17.175 4.33339 17.175H13.6667C14.8584 17.175 16.0001 16.2083 16.2001 15.0333L17.3084 8.39998C17.4417 7.58331 17.0251 6.49164 16.3834 5.97498ZM9.00006 11.9166C7.85006 11.9166 6.91672 10.9833 6.91672 9.83331C6.91672 8.68331 7.85006 7.74998 9.00006 7.74998C10.1501 7.74998 11.0834 8.68331 11.0834 9.83331C11.0834 10.9833 10.1501 11.9166 9.00006 11.9166Z" fill="#637990"/>
</svg>
