<svg width="20" height="20" viewBox="0 0 20 20" fill="none" xmlns="http://www.w3.org/2000/svg">
<g clip-path="url(#clip0_7051_12830)">
<path d="M7.37184 13.4551L6.5432 12.6265L5.8793 13.2904V12.0755H14.1215V13.2904L13.4575 12.6265L12.6289 13.4552L14.7074 15.5336L16.7859 13.4552L15.9572 12.6265L15.2934 13.2904V10.9036H10.5863V9.95508C10.3913 9.96844 10.1957 9.97551 10.0004 9.97551C9.80504 9.97551 9.60945 9.96844 9.41445 9.95508V10.9036H4.70742V13.2904L4.04348 12.6265L3.21484 13.4552L5.29332 15.5336L7.37184 13.4551Z" fill="#34ADF4"/>
<path d="M9.99707 4.99219C10.3229 4.99219 10.5879 4.72715 10.5879 4.40137C10.5879 4.07559 10.3229 3.81055 9.99707 3.81055C9.67129 3.81055 9.40625 4.07559 9.40625 4.40137C9.40625 4.72715 9.67129 4.99219 9.99707 4.99219Z" fill="#34ADF4"/>
<path d="M6.18879 6.6025C6.40187 6.97156 6.64219 7.31481 6.90605 7.63152L7.82816 7.09914C8.1041 7.32164 8.41484 7.50238 8.75098 7.63254V8.69672C9.15719 8.76684 9.57465 8.80336 10.0008 8.80336C10.4269 8.80336 10.8443 8.76684 11.2506 8.69672V7.63254C11.5867 7.50242 11.8975 7.32168 12.1734 7.09914L13.0955 7.63152C13.3593 7.31477 13.5997 6.97152 13.8128 6.6025C14.0259 6.23348 14.2029 5.85367 14.3453 5.46684L13.4241 4.93496C13.4509 4.76113 13.465 4.58305 13.465 4.40168C13.465 4.22031 13.4509 4.04223 13.4241 3.8684L14.3453 3.33652C14.2029 2.94965 14.0258 2.56988 13.8128 2.20086C13.5997 1.8318 13.3594 1.48855 13.0955 1.17184L12.1734 1.70422C11.8975 1.48172 11.5867 1.30098 11.2506 1.17086V0.106641C10.8443 0.0365234 10.4269 0 10.0007 0C9.57461 0 9.15719 0.0365234 8.75094 0.106641V1.17082C8.4148 1.30094 8.10406 1.48168 7.82816 1.70418L6.90605 1.1718C6.64223 1.48852 6.40187 1.8318 6.18879 2.20082C5.9757 2.56988 5.79863 2.94961 5.65625 3.33648L6.5775 3.86836C6.55062 4.04223 6.53656 4.22027 6.53656 4.40164C6.53656 4.58301 6.55062 4.76109 6.5775 4.93492L5.65625 5.4668C5.79863 5.85371 5.9757 6.23348 6.18879 6.6025ZM9.99668 2.63898C10.9686 2.63898 11.7594 3.42973 11.7594 4.40168C11.7594 5.37363 10.9686 6.16438 9.99668 6.16438C9.02473 6.16438 8.23398 5.37363 8.23398 4.40168C8.23398 3.42973 9.02473 2.63898 9.99668 2.63898Z" fill="#34ADF4"/>
<path d="M2.79297 16.25H7.79297V20H2.79297V16.25Z" fill="#34ADF4"/>
<path d="M12.207 16.25H17.207V20H12.207V16.25Z" fill="#34ADF4"/>
</g>
<defs>
<clipPath id="clip0_7051_12830">
<rect width="20" height="20" fill="white"/>
</clipPath>
</defs>
</svg>
