<svg width="16" height="20" viewBox="0 0 16 20" fill="none" xmlns="http://www.w3.org/2000/svg">
<path d="M5.37184 13.4551L4.5432 12.6265L3.8793 13.2904V12.0755H12.1215V13.2904L11.4575 12.6265L10.6289 13.4552L12.7074 15.5336L14.7859 13.4552L13.9572 12.6265L13.2934 13.2904V10.9036H8.58633V9.95508C8.39133 9.96844 8.19574 9.97551 8.00039 9.97551C7.80504 9.97551 7.60945 9.96844 7.41445 9.95508V10.9036H2.70742V13.2904L2.04348 12.6265L1.21484 13.4552L3.29332 15.5336L5.37184 13.4551Z" fill="#637990"/>
<path d="M7.99512 4.99219C8.3209 4.99219 8.58594 4.72715 8.58594 4.40137C8.58594 4.07559 8.3209 3.81055 7.99512 3.81055C7.66934 3.81055 7.4043 4.07559 7.4043 4.40137C7.4043 4.72715 7.66934 4.99219 7.99512 4.99219Z" fill="#637990"/>
<path d="M4.18879 6.6025C4.40187 6.97156 4.64219 7.31481 4.90605 7.63152L5.82816 7.09914C6.1041 7.32164 6.41484 7.50238 6.75098 7.63254V8.69672C7.15719 8.76684 7.57465 8.80336 8.00078 8.80336C8.42691 8.80336 8.84434 8.76684 9.25059 8.69672V7.63254C9.58672 7.50242 9.89746 7.32168 10.1734 7.09914L11.0955 7.63152C11.3593 7.31477 11.5997 6.97152 11.8128 6.6025C12.0259 6.23348 12.2029 5.85367 12.3453 5.46684L11.4241 4.93496C11.4509 4.76113 11.465 4.58305 11.465 4.40168C11.465 4.22031 11.4509 4.04223 11.4241 3.8684L12.3453 3.33652C12.2029 2.94965 12.0258 2.56988 11.8128 2.20086C11.5997 1.8318 11.3594 1.48855 11.0955 1.17184L10.1734 1.70422C9.89746 1.48172 9.58672 1.30098 9.25062 1.17086V0.106641C8.8443 0.0365234 8.42687 0 8.00074 0C7.57461 0 7.15719 0.0365234 6.75094 0.106641V1.17082C6.4148 1.30094 6.10406 1.48168 5.82816 1.70418L4.90605 1.1718C4.64223 1.48852 4.40187 1.8318 4.18879 2.20082C3.9757 2.56988 3.79863 2.94961 3.65625 3.33648L4.5775 3.86836C4.55062 4.04223 4.53656 4.22027 4.53656 4.40164C4.53656 4.58301 4.55062 4.76109 4.5775 4.93492L3.65625 5.4668C3.79863 5.85371 3.9757 6.23348 4.18879 6.6025ZM7.99668 2.63898C8.96863 2.63898 9.75937 3.42973 9.75937 4.40168C9.75937 5.37363 8.96863 6.16438 7.99668 6.16438C7.02473 6.16438 6.23398 5.37363 6.23398 4.40168C6.23398 3.42973 7.02473 2.63898 7.99668 2.63898Z" fill="#637990"/>
<path d="M0.792969 16.25H5.79297V20H0.792969V16.25Z" fill="#637990"/>
<path d="M10.207 16.25H15.207V20H10.207V16.25Z" fill="#637990"/>
</svg>
