<svg width="34" height="34" viewBox="0 0 34 34" fill="none" xmlns="http://www.w3.org/2000/svg">
<path d="M23.984 0.333496H10.0173C3.95065 0.333496 0.333984 3.95016 0.333984 10.0168V23.9668C0.333984 30.0502 3.95065 33.6668 10.0173 33.6668H23.9673C30.034 33.6668 33.6507 30.0502 33.6507 23.9835V10.0168C33.6673 3.95016 30.0507 0.333496 23.984 0.333496ZM17.0007 27.4168C14.0173 27.4168 11.684 25.9335 10.1007 24.4668V25.6502C10.1007 26.3335 9.53398 26.9002 8.85065 26.9002C8.16732 26.9002 7.60065 26.3335 7.60065 25.6502V21.0668C7.60065 20.3835 8.16732 19.8168 8.85065 19.8168H12.984C13.6673 19.8168 14.234 20.3835 14.234 21.0668C14.234 21.7502 13.6673 22.3168 12.984 22.3168H11.484C12.7173 23.5502 14.634 24.9168 17.0007 24.9168C21.3673 24.9168 24.9173 21.3668 24.9173 17.0002C24.9173 16.3168 25.484 15.7502 26.1673 15.7502C26.8507 15.7502 27.4173 16.3168 27.4173 17.0002C27.4173 22.7502 22.7507 27.4168 17.0007 27.4168ZM27.4173 12.9002C27.4173 12.9502 27.4173 13.0002 27.4173 13.0335C27.4007 13.2168 27.3507 13.3835 27.2673 13.5335C27.184 13.6835 27.0673 13.8168 26.9173 13.9335C26.8007 14.0168 26.6673 14.0835 26.5173 14.1335C26.4006 14.1668 26.284 14.1835 26.1673 14.1835H22.1173C21.434 14.1835 20.8673 13.6168 20.8673 12.9335C20.8673 12.2502 21.434 11.6835 22.1173 11.6835H23.5007C22.1673 10.4502 20.0173 9.0835 17.034 9.0835C12.6673 9.0835 9.11732 12.6335 9.11732 17.0002C9.11732 17.6835 8.55065 18.2502 7.86732 18.2502C7.18398 18.2502 6.58398 17.6835 6.58398 17.0002C6.58398 11.2502 11.2507 6.5835 17.0007 6.5835C20.584 6.5835 23.2173 8.1335 24.9173 9.61683V8.35016C24.9173 7.66683 25.484 7.10016 26.1673 7.10016C26.8507 7.10016 27.4173 7.66683 27.4173 8.35016V12.9002Z" fill="#16375A"/>
</svg>
