<svg width="20" height="20" viewBox="0 0 20 20" fill="none" xmlns="http://www.w3.org/2000/svg">
<path d="M8.37576 2.375L1.05078 9.70001C0.884115 9.86668 0.884115 10.125 1.05078 10.2917L8.37576 17.6167C8.64243 17.875 9.08413 17.6917 9.08413 17.325V15.1667C9.08413 15.0583 9.04244 14.95 8.95911 14.875L4.37577 10.2917C4.20911 10.125 4.20911 9.86668 4.37577 9.70001L8.95911 5.11668C9.03411 5.04168 9.08413 4.93334 9.08413 4.82501V2.66668C9.08413 2.30001 8.6341 2.11667 8.37576 2.375Z" fill="#637990"/>
<path d="M11.4583 2.375L18.7833 9.70001C18.95 9.86668 18.95 10.125 18.7833 10.2917L11.4583 17.6167C11.2 17.875 10.75 17.6917 10.75 17.325V15.1667C10.75 15.0583 10.7916 14.95 10.875 14.875L15.4583 10.2917C15.625 10.125 15.625 9.86668 15.4583 9.70001L10.875 5.11668C10.8 5.04168 10.75 4.93334 10.75 4.82501V2.66668C10.75 2.30001 11.2 2.11667 11.4583 2.375Z" fill="#637990"/>
<path d="M8.37446 8.20832L6.88281 9.69999C6.71615 9.86666 6.71615 10.125 6.88281 10.2917L8.37446 11.7833C8.64113 12.0417 9.08282 11.8583 9.08282 11.4917V8.49999C9.08282 8.13332 8.63279 7.94998 8.37446 8.20832Z" fill="#637990"/>
</svg>
