<svg width="20" height="20" viewBox="0 0 20 20" fill="none" xmlns="http://www.w3.org/2000/svg">
<g clip-path="url(#clip0_6731_11845)">
<path d="M20 14.1406H14.1406V20H20V14.1406Z" fill="#34ADF4"/>
<path d="M18.8281 2.34375H5.85938V0H0V5.85937H5.85938V3.51562H18.8281V9.41406H15.4899V8.22043L13.7109 9.99988L15.4899 11.7797V10.5859H18.8281C19.4743 10.5859 20 10.0602 20 9.41406V3.51562C20 2.86945 19.4743 2.34375 18.8281 2.34375Z" fill="#34ADF4"/>
<path d="M13.3594 17.0702L11.5804 15.2908V16.4844H1.21094V10.5859H7.07031V12.9297H12.9297V7.07031H7.07031V9.41406H1.21094C0.564766 9.41406 0.0390625 9.93977 0.0390625 10.5859V16.4844C0.0390625 17.1305 0.564766 17.6562 1.21094 17.6562H11.5804V18.85L13.3594 17.0702Z" fill="#34ADF4"/>
</g>
<defs>
<clipPath id="clip0_6731_11845">
<rect width="20" height="20" fill="white"/>
</clipPath>
</defs>
</svg>
