<svg width="15" height="16" viewBox="0 0 15 16" fill="none" xmlns="http://www.w3.org/2000/svg">
<path d="M7.38722 5.66667C6.72523 5.66667 6.18359 6.26667 6.18359 7.00001C6.18359 7.73334 6.72523 8.33334 7.38722 8.33334C8.04922 8.33334 8.59085 7.73334 8.59085 7.00001" stroke="#2373A2" stroke-width="1.5" stroke-miterlimit="10" stroke-linecap="round" stroke-linejoin="round"/>
<path d="M7.38672 8.33333V10.3333" stroke="#2373A2" stroke-width="1.5" stroke-miterlimit="10" stroke-linecap="round" stroke-linejoin="round"/>
<path d="M12.556 4.74666C12.556 3.92666 11.9903 3.02 11.2982 2.73333L8.29512 1.48667C7.79561 1.28 6.97714 1.28 6.47764 1.48667L3.47459 2.74C2.7825 3.02667 2.2168 3.93333 2.2168 4.74666V9.7C2.2168 10.4867 2.68621 11.52 3.25793 11.9933L5.84573 14.1333C6.69429 14.84 8.0905 14.84 8.93906 14.1333L11.5269 11.9933C12.0986 11.52 12.568 10.4867 12.568 9.7V7.35333" stroke="#2373A2" stroke-width="1.5" stroke-linecap="round" stroke-linejoin="round"/>
</svg>
