<svg width="16" height="18" viewBox="0 0 16 18" fill="none" xmlns="http://www.w3.org/2000/svg">
<path d="M13.7824 3.51589L9.47409 1.02422C8.64909 0.549219 7.35742 0.549219 6.53242 1.02422L2.18242 3.53255C0.457422 4.69922 0.357422 4.87422 0.357422 6.73255V11.2576C0.357422 13.1159 0.457422 13.2992 2.21576 14.4826L6.52409 16.9742C6.94076 17.2159 7.47409 17.3326 7.99909 17.3326C8.52409 17.3326 9.05742 17.2159 9.46576 16.9742L13.8158 14.4659C15.5408 13.2992 15.6408 13.1242 15.6408 11.2659V6.73255C15.6408 4.87422 15.5408 4.69922 13.7824 3.51589ZM7.99909 11.7076C6.50742 11.7076 5.29076 10.4909 5.29076 8.99922C5.29076 7.50755 6.50742 6.29089 7.99909 6.29089C9.49076 6.29089 10.7074 7.50755 10.7074 8.99922C10.7074 10.4909 9.49076 11.7076 7.99909 11.7076Z" fill="#637990"/>
</svg>
