<svg width="18" height="16" viewBox="0 0 18 16" fill="none" xmlns="http://www.w3.org/2000/svg">
<path d="M15.7493 5.6819C14.241 5.6819 13.6243 4.61523 14.3743 3.3069C14.8077 2.54856 14.5493 1.5819 13.791 1.14856L12.3493 0.323564C11.691 -0.0681031 10.841 0.16523 10.4493 0.823564L10.3577 0.981897C9.60768 2.29023 8.37435 2.29023 7.61602 0.981897L7.52435 0.823564C7.14935 0.16523 6.29935 -0.0681031 5.64102 0.323564L4.19935 1.14856C3.44102 1.5819 3.18268 2.5569 3.61602 3.31523C4.37435 4.61523 3.75768 5.6819 2.24935 5.6819C1.38268 5.6819 0.666016 6.39023 0.666016 7.26523V8.7319C0.666016 9.59856 1.37435 10.3152 2.24935 10.3152C3.75768 10.3152 4.37435 11.3819 3.61602 12.6902C3.18268 13.4486 3.44102 14.4152 4.19935 14.8486L5.64102 15.6736C6.29935 16.0652 7.14935 15.8319 7.54102 15.1736L7.63268 15.0152C8.38268 13.7069 9.61602 13.7069 10.3743 15.0152L10.466 15.1736C10.8577 15.8319 11.7077 16.0652 12.366 15.6736L13.8077 14.8486C14.566 14.4152 14.8243 13.4402 14.391 12.6902C13.6327 11.3819 14.2493 10.3152 15.7577 10.3152C16.6243 10.3152 17.341 9.6069 17.341 8.7319V7.26523C17.3327 6.39856 16.6243 5.6819 15.7493 5.6819ZM8.99935 10.7069C7.50768 10.7069 6.29102 9.49023 6.29102 7.99856C6.29102 6.5069 7.50768 5.29023 8.99935 5.29023C10.491 5.29023 11.7077 6.5069 11.7077 7.99856C11.7077 9.49023 10.491 10.7069 8.99935 10.7069Z" fill="#637990"/>
</svg>
