<svg width="20" height="20" viewBox="0 0 20 20" fill="none" xmlns="http://www.w3.org/2000/svg">
<path d="M11.1913 12.4992H3.6663C2.14963 12.4992 1.18296 10.8742 1.9163 9.54089L3.85796 6.00755L5.67463 2.69922C6.43296 1.32422 8.4163 1.32422 9.17463 2.69922L10.9996 6.00755L11.8746 7.59922L12.9413 9.54089C13.6746 10.8742 12.708 12.4992 11.1913 12.4992Z" fill="#637990"/>
<path d="M18.875 13.3344C18.875 16.3261 16.45 18.7511 13.4583 18.7511C10.9166 18.7511 8.79164 17.0094 8.19997 14.6428C8.14164 14.3928 8.33331 14.1678 8.59164 14.1678H11.7333C12.8916 14.1678 13.9416 13.5678 14.5333 12.5761C15.1166 11.5761 15.1416 10.3761 14.575 9.35943L14.1583 8.59277C14 8.30943 14.225 7.96777 14.5416 8.0261C17.0083 8.5261 18.875 10.7094 18.875 13.3344Z" fill="#637990"/>
</svg>
