<svg width="16" height="18" viewBox="0 0 16 18" fill="none" xmlns="http://www.w3.org/2000/svg">
<path d="M13.4168 2.42493L9.25846 0.866602C8.5668 0.608268 7.43346 0.608268 6.7418 0.866602L2.58346 2.42493C1.62513 2.78327 0.841797 3.9166 0.841797 4.93327V11.1249C0.841797 12.1083 1.4918 13.3999 2.28346 13.9916L5.8668 16.6666C7.0418 17.5499 8.97513 17.5499 10.1501 16.6666L13.7335 13.9916C14.5251 13.3999 15.1751 12.1083 15.1751 11.1249V4.93327C15.1585 3.9166 14.3751 2.78327 13.4168 2.42493ZM7.9418 4.85827C8.92513 4.85827 9.72513 5.65827 9.72513 6.6416C9.72513 7.60827 8.9668 8.38327 8.00846 8.4166H7.9918H7.97513C7.95846 8.4166 7.9418 8.4166 7.92513 8.4166C6.92513 8.38327 6.17513 7.60827 6.17513 6.6416C6.1668 5.65827 6.9668 4.85827 7.9418 4.85827ZM9.82513 12.6333C9.3168 12.9666 8.65846 13.1416 8.00013 13.1416C7.3418 13.1416 6.67513 12.9749 6.17513 12.6333C5.70013 12.3166 5.4418 11.8833 5.43346 11.4083C5.43346 10.9416 5.70013 10.4916 6.17513 10.1749C7.18346 9.50827 8.82513 9.50827 9.83346 10.1749C10.3085 10.4916 10.5751 10.9249 10.5751 11.3999C10.5668 11.8666 10.3001 12.3166 9.82513 12.6333Z" fill="#637990"/>
</svg>
