<svg width="16" height="18" viewBox="0 0 16 18" fill="none" xmlns="http://www.w3.org/2000/svg">
<path d="M13.4497 2.43385L8.86634 0.717187C8.39134 0.542188 7.61634 0.542188 7.14134 0.717187L2.55801 2.43385C1.67467 2.76719 0.958008 3.80052 0.958008 4.74219V11.4922C0.958008 12.1672 1.39967 13.0589 1.94134 13.4589L6.52467 16.8839C7.33301 17.4922 8.65801 17.4922 9.46634 16.8839L14.0497 13.4589C14.5913 13.0505 15.033 12.1672 15.033 11.4922V4.74219C15.0413 3.80052 14.3247 2.76719 13.4497 2.43385ZM10.233 10.6422C10.108 10.7672 9.94967 10.8255 9.79134 10.8255C9.63301 10.8255 9.47467 10.7672 9.34967 10.6422L8.02467 9.31719L6.65801 10.6839C6.53301 10.8089 6.37467 10.8672 6.21634 10.8672C6.05801 10.8672 5.89967 10.8089 5.77467 10.6839C5.53301 10.4422 5.53301 10.0422 5.77467 9.80052L7.14134 8.43385L5.80801 7.10052C5.56634 6.85885 5.56634 6.45885 5.80801 6.21719C6.04967 5.97552 6.44967 5.97552 6.69134 6.21719L8.01634 7.54219L9.30801 6.25052C9.54967 6.00885 9.94967 6.00885 10.1913 6.25052C10.433 6.49219 10.433 6.89219 10.1913 7.13385L8.89967 8.42552L10.2247 9.75052C10.4747 10.0005 10.4747 10.3922 10.233 10.6422Z" fill="#637990"/>
</svg>
