<svg width="20" height="20" viewBox="0 0 20 20" fill="none" xmlns="http://www.w3.org/2000/svg">
<path d="M16.2079 5.78516V7.87682C16.2079 8.46849 15.6079 8.85182 15.0495 8.64349C14.3495 8.38516 13.5745 8.28516 12.7579 8.36849C10.7745 8.58516 8.74121 10.4935 8.40788 12.4685C8.13288 14.1102 8.65788 15.6435 9.66621 16.7268C10.1245 17.2268 9.81621 18.0352 9.14121 18.1102C8.56621 18.1768 7.99954 18.1602 7.68288 17.9268L3.09954 14.5018C2.55788 14.0935 2.11621 13.2102 2.11621 12.5268V5.78516C2.11621 4.84349 2.83288 3.81016 3.70788 3.47682L8.29121 1.76016C8.76621 1.58516 9.54954 1.58516 10.0245 1.76016L14.6079 3.47682C15.4912 3.81016 16.2079 4.84349 16.2079 5.78516Z" fill="#637990"/>
<path d="M13.333 9.58984C11.2663 9.58984 9.58301 11.2732 9.58301 13.3398C9.58301 15.4065 11.2663 17.0898 13.333 17.0898C15.3997 17.0898 17.083 15.4065 17.083 13.3398C17.083 11.2648 15.3997 9.58984 13.333 9.58984Z" fill="#637990"/>
<path d="M17.5003 18.3315C17.2753 18.3315 17.067 18.2398 16.9087 18.0898C16.8753 18.0481 16.8337 18.0065 16.8087 17.9565C16.7753 17.9148 16.7503 17.8648 16.7337 17.8148C16.7087 17.7648 16.692 17.7148 16.6837 17.6648C16.6753 17.6065 16.667 17.5565 16.667 17.4981C16.667 17.3898 16.692 17.2815 16.7337 17.1815C16.7753 17.0731 16.8337 16.9898 16.9087 16.9065C17.1003 16.7148 17.392 16.6231 17.6587 16.6815C17.717 16.6898 17.767 16.7065 17.817 16.7315C17.867 16.7481 17.917 16.7731 17.9587 16.8065C18.0087 16.8315 18.0503 16.8731 18.092 16.9065C18.167 16.9898 18.2253 17.0731 18.267 17.1815C18.3087 17.2815 18.3337 17.3898 18.3337 17.4981C18.3337 17.7148 18.242 17.9315 18.092 18.0898C18.0503 18.1231 18.0087 18.1565 17.9587 18.1898C17.917 18.2231 17.867 18.2481 17.817 18.2648C17.767 18.2898 17.717 18.3065 17.6587 18.3148C17.6087 18.3231 17.5503 18.3315 17.5003 18.3315Z" fill="#637990"/>
</svg>
