<svg width="18" height="18" viewBox="0 0 18 18" fill="none" xmlns="http://www.w3.org/2000/svg">
<path d="M12.492 0.666687H5.50866C2.47533 0.666687 0.666992 2.47502 0.666992 5.50835V12.4917C0.666992 15.525 2.47533 17.3334 5.50866 17.3334H12.492C15.5253 17.3334 17.3337 15.525 17.3337 12.4917V5.50835C17.3337 2.47502 15.5253 0.666687 12.492 0.666687ZM7.30866 11.4167L5.43366 13.2917C5.30866 13.4167 5.15033 13.475 4.99199 13.475C4.83366 13.475 4.66699 13.4167 4.55033 13.2917L3.92533 12.6667C3.67533 12.425 3.67533 12.025 3.92533 11.7834C4.16699 11.5417 4.55866 11.5417 4.80866 11.7834L4.99199 11.9667L6.42533 10.5334C6.66699 10.2917 7.05866 10.2917 7.30866 10.5334C7.55033 10.775 7.55033 11.175 7.30866 11.4167ZM7.30866 5.58335L5.43366 7.45835C5.30866 7.58335 5.15033 7.64169 4.99199 7.64169C4.83366 7.64169 4.66699 7.58335 4.55033 7.45835L3.92533 6.83335C3.67533 6.59169 3.67533 6.19169 3.92533 5.95002C4.16699 5.70835 4.55866 5.70835 4.80866 5.95002L4.99199 6.13335L6.42533 4.70002C6.66699 4.45835 7.05866 4.45835 7.30866 4.70002C7.55033 4.94169 7.55033 5.34169 7.30866 5.58335ZM13.6337 12.85H9.25866C8.91699 12.85 8.63366 12.5667 8.63366 12.225C8.63366 11.8834 8.91699 11.6 9.25866 11.6H13.6337C13.9837 11.6 14.2587 11.8834 14.2587 12.225C14.2587 12.5667 13.9837 12.85 13.6337 12.85ZM13.6337 7.01669H9.25866C8.91699 7.01669 8.63366 6.73335 8.63366 6.39169C8.63366 6.05002 8.91699 5.76669 9.25866 5.76669H13.6337C13.9837 5.76669 14.2587 6.05002 14.2587 6.39169C14.2587 6.73335 13.9837 7.01669 13.6337 7.01669Z" fill="#34ADF4"/>
</svg>
