<svg width="18" height="18" viewBox="0 0 18 18" fill="none" xmlns="http://www.w3.org/2000/svg">
<path d="M12.493 0.666656H5.50964C2.4763 0.666656 0.667969 2.47499 0.667969 5.50832V12.4917C0.667969 15.525 2.4763 17.3333 5.50964 17.3333H12.493C15.5263 17.3333 17.3346 15.525 17.3346 12.4917V5.50832C17.3346 2.47499 15.5263 0.666656 12.493 0.666656ZM7.30964 11.4167L5.43464 13.2917C5.30964 13.4167 5.1513 13.475 4.99297 13.475C4.83464 13.475 4.66797 13.4167 4.5513 13.2917L3.9263 12.6667C3.6763 12.425 3.6763 12.025 3.9263 11.7833C4.16797 11.5417 4.55964 11.5417 4.80964 11.7833L4.99297 11.9667L6.4263 10.5333C6.66797 10.2917 7.05964 10.2917 7.30964 10.5333C7.5513 10.775 7.5513 11.175 7.30964 11.4167ZM7.30964 5.58332L5.43464 7.45832C5.30964 7.58332 5.1513 7.64166 4.99297 7.64166C4.83464 7.64166 4.66797 7.58332 4.5513 7.45832L3.9263 6.83332C3.6763 6.59166 3.6763 6.19166 3.9263 5.94999C4.16797 5.70832 4.55964 5.70832 4.80964 5.94999L4.99297 6.13332L6.4263 4.69999C6.66797 4.45832 7.05964 4.45832 7.30964 4.69999C7.5513 4.94166 7.5513 5.34166 7.30964 5.58332ZM13.6346 12.85H9.25964C8.91797 12.85 8.63464 12.5667 8.63464 12.225C8.63464 11.8833 8.91797 11.6 9.25964 11.6H13.6346C13.9846 11.6 14.2596 11.8833 14.2596 12.225C14.2596 12.5667 13.9846 12.85 13.6346 12.85ZM13.6346 7.01666H9.25964C8.91797 7.01666 8.63464 6.73332 8.63464 6.39166C8.63464 6.04999 8.91797 5.76666 9.25964 5.76666H13.6346C13.9846 5.76666 14.2596 6.04999 14.2596 6.39166C14.2596 6.73332 13.9846 7.01666 13.6346 7.01666Z" fill="#637990"/>
</svg>
