<svg width="20" height="20" viewBox="0 0 20 20" fill="none" xmlns="http://www.w3.org/2000/svg">
<path d="M17.5574 4.35573C16.2157 4.2224 14.8741 4.1224 13.5241 4.0474V4.03906L13.3407 2.95573C13.2157 2.18906 13.0324 1.03906 11.0824 1.03906H8.89907C6.95741 1.03906 6.77407 2.13906 6.64074 2.9474L6.46574 4.01406C5.69074 4.06406 4.91574 4.11406 4.14074 4.18906L2.44074 4.35573C2.09074 4.38906 1.84074 4.6974 1.87407 5.03906C1.90741 5.38073 2.20741 5.63073 2.55741 5.5974L4.25741 5.43073C8.62407 4.9974 13.0241 5.16406 17.4407 5.60573C17.4657 5.60573 17.4824 5.60573 17.5074 5.60573C17.8241 5.60573 18.0991 5.36406 18.1324 5.03906C18.1574 4.6974 17.9074 4.38906 17.5574 4.35573Z" fill="#292D32"/>
<path d="M16.0225 6.78594C15.8225 6.5776 15.5475 6.46094 15.2642 6.46094H4.73085C4.44751 6.46094 4.16418 6.5776 3.97251 6.78594C3.78085 6.99427 3.67251 7.2776 3.68918 7.56927L4.20585 16.1193C4.29751 17.3859 4.41418 18.9693 7.32251 18.9693H12.6725C15.5808 18.9693 15.6975 17.3943 15.7892 16.1193L16.3058 7.5776C16.3225 7.2776 16.2142 6.99427 16.0225 6.78594ZM11.3808 14.7943H8.60585C8.26418 14.7943 7.98085 14.5109 7.98085 14.1693C7.98085 13.8276 8.26418 13.5443 8.60585 13.5443H11.3808C11.7225 13.5443 12.0058 13.8276 12.0058 14.1693C12.0058 14.5109 11.7225 14.7943 11.3808 14.7943ZM12.0808 11.4609H7.91418C7.57251 11.4609 7.28918 11.1776 7.28918 10.8359C7.28918 10.4943 7.57251 10.2109 7.91418 10.2109H12.0808C12.4225 10.2109 12.7058 10.4943 12.7058 10.8359C12.7058 11.1776 12.4225 11.4609 12.0808 11.4609Z" fill="#292D32"/>
</svg>
