<svg width="20" height="20" viewBox="0 0 20 20" fill="none" xmlns="http://www.w3.org/2000/svg">
<path d="M8.37479 2.375L1.0498 9.70001C0.883138 9.86668 0.883138 10.125 1.0498 10.2917L8.37479 17.6167C8.64145 17.875 9.08315 17.6917 9.08315 17.325V15.1667C9.08315 15.0583 9.04146 14.95 8.95813 14.875L4.3748 10.2917C4.20813 10.125 4.20813 9.86668 4.3748 9.70001L8.95813 5.11668C9.03313 5.04168 9.08315 4.93334 9.08315 4.82501V2.66668C9.08315 2.30001 8.63312 2.11667 8.37479 2.375Z" fill="#34ADF4"/>
<path d="M11.4583 2.375L18.7833 9.70001C18.95 9.86668 18.95 10.125 18.7833 10.2917L11.4583 17.6167C11.2 17.875 10.75 17.6917 10.75 17.325V15.1667C10.75 15.0583 10.7916 14.95 10.875 14.875L15.4583 10.2917C15.625 10.125 15.625 9.86668 15.4583 9.70001L10.875 5.11668C10.8 5.04168 10.75 4.93334 10.75 4.82501V2.66668C10.75 2.30001 11.2 2.11667 11.4583 2.375Z" fill="#34ADF4"/>
<path d="M8.37544 8.20832L6.88379 9.69999C6.71712 9.86666 6.71712 10.125 6.88379 10.2917L8.37544 11.7833C8.6421 12.0417 9.0838 11.8583 9.0838 11.4917V8.49999C9.0838 8.13332 8.63377 7.94998 8.37544 8.20832Z" fill="#34ADF4"/>
</svg>
